<mxfile host="app.diagrams.net" modified="2023-04-03T16:28:03.320Z" agent="Mozilla/5.0 (X11; Linux x86_64) AppleWebKit/537.36 (KHTML, like Gecko) Chrome/110.0.0.0 Safari/537.36" version="21.1.4" etag="3Zq7NQMZjY99A5XGkmNV" type="github">
  <diagram name="Page-1" id="AEnVuTucPnRPypkjWxbm">
    <mxGraphModel>
      <root>
        <mxCell id="0" />
        <mxCell id="1" parent="0" />
      </root>
    </mxGraphModel>
  </diagram>
</mxfile>
